# xmcd
#
# Track frame offsets: 
#        150
#        15949
#        36106
#        65620
#
# Disc length: 1821 seconds
#
# Revision: 0
# Processed by: cddbd v1.5.2PL0 Copyright (c) Steve Scherf et al.
# Submitted via: ExactAudioCopy v0.99pb5
#
DISCID=27071b04
DTITLE=Shania Twain - I Ain't No Quitter
DYEAR=2005
DGENRE=Country
TTITLE0=I Ain't No Quitter - Greatest Hits Version
TTITLE1=Whose Bed Have Your Boots Been Under? - from Up! Close and Per
TTITLE1=sonal DVD
TTITLE2=I Ain't Goin' Down - Audio from Up! Close and Personal DVD
TTITLE3=I Ain't No Quitter - Video
EXTD=
EXTT0=
EXTT1=
EXTT2=
EXTT3=
PLAYORDER=
